<?xml version="1.0" encoding="UTF-8"?>
<svg xmlns="http://www.w3.org/2000/svg" xmlns:xlink="http://www.w3.org/1999/xlink" width="18px" height="18px" viewBox="0 0 18 18" version="1.1">
<g id="surface1">
<path style=" stroke:none;fill-rule:nonzero;fill:rgb(3.529412%,6.27451%,10.980392%);fill-opacity:1;" d="M 8.230469 -0.0078125 C 8.273438 -0.0078125 8.273438 -0.0078125 8.316406 -0.0078125 C 8.46875 -0.0078125 8.617188 -0.0078125 8.769531 -0.0078125 C 8.890625 -0.0078125 9.015625 -0.0078125 9.136719 -0.0117188 C 11.292969 -0.0273438 13.917969 0.0976562 15.636719 1.574219 C 15.667969 1.601562 15.703125 1.628906 15.734375 1.660156 C 15.828125 1.742188 15.921875 1.828125 16.011719 1.914062 C 16.039062 1.9375 16.066406 1.964844 16.097656 1.988281 C 17.566406 3.378906 17.910156 5.683594 18 7.613281 C 18.003906 7.816406 18.007812 8.023438 18.007812 8.230469 C 18.007812 8.257812 18.007812 8.285156 18.007812 8.316406 C 18.007812 8.46875 18.007812 8.617188 18.007812 8.769531 C 18.007812 8.890625 18.007812 9.015625 18.011719 9.136719 C 18.027344 11.292969 17.902344 13.917969 16.425781 15.636719 C 16.398438 15.667969 16.371094 15.703125 16.339844 15.734375 C 16.257812 15.828125 16.171875 15.921875 16.085938 16.011719 C 16.0625 16.039062 16.035156 16.066406 16.011719 16.097656 C 14.621094 17.566406 12.316406 17.910156 10.386719 18 C 10.183594 18.003906 9.976562 18.007812 9.769531 18.007812 C 9.742188 18.007812 9.714844 18.007812 9.683594 18.007812 C 9.53125 18.007812 9.382812 18.007812 9.230469 18.007812 C 9.109375 18.007812 8.984375 18.007812 8.863281 18.011719 C 6.707031 18.027344 4.082031 17.902344 2.363281 16.425781 C 2.332031 16.398438 2.296875 16.371094 2.265625 16.339844 C 2.171875 16.257812 2.078125 16.171875 1.988281 16.085938 C 1.960938 16.0625 1.933594 16.035156 1.902344 16.011719 C 0.433594 14.621094 0.0898438 12.316406 0 10.386719 C -0.00390625 10.183594 -0.0078125 9.976562 -0.0078125 9.769531 C -0.0078125 9.742188 -0.0078125 9.714844 -0.0078125 9.683594 C -0.0078125 9.53125 -0.0078125 9.382812 -0.0078125 9.230469 C -0.0078125 9.109375 -0.0078125 8.984375 -0.0117188 8.863281 C -0.0273438 6.707031 0.0976562 4.082031 1.574219 2.363281 C 1.601562 2.332031 1.628906 2.296875 1.660156 2.265625 C 1.742188 2.171875 1.828125 2.078125 1.914062 1.988281 C 1.9375 1.960938 1.964844 1.933594 1.988281 1.902344 C 3.511719 0.296875 6.128906 -0.00390625 8.230469 -0.0078125 Z M 8.230469 -0.0078125 "/>
<path style=" stroke:none;fill-rule:nonzero;fill:rgb(98.039216%,98.039216%,98.039216%);fill-opacity:1;" d="M 11.886719 5.476562 C 12.222656 5.792969 12.417969 6.144531 12.460938 6.605469 C 12.472656 7.074219 12.375 7.472656 12.074219 7.835938 C 11.644531 8.261719 11.007812 8.515625 10.402344 8.515625 C 10.359375 8.515625 10.316406 8.515625 10.273438 8.511719 C 10.300781 8.449219 10.324219 8.386719 10.351562 8.324219 C 10.371094 8.273438 10.371094 8.273438 10.390625 8.21875 C 10.523438 7.9375 10.523438 7.9375 10.667969 7.867188 C 10.773438 7.839844 10.878906 7.820312 10.988281 7.800781 C 11.320312 7.703125 11.589844 7.527344 11.773438 7.230469 C 11.890625 6.90625 11.890625 6.59375 11.75 6.277344 C 11.554688 5.925781 11.261719 5.730469 10.886719 5.609375 C 10.253906 5.449219 9.625 5.570312 9.066406 5.894531 C 8.34375 6.34375 7.914062 7.039062 7.648438 7.835938 C 7.984375 7.835938 8.316406 7.835938 8.664062 7.835938 C 8.636719 7.898438 8.613281 7.960938 8.585938 8.023438 C 8.578125 8.058594 8.570312 8.089844 8.5625 8.125 C 8.511719 8.253906 8.472656 8.3125 8.363281 8.398438 C 8.117188 8.457031 7.859375 8.4375 7.609375 8.4375 C 7.457031 8.4375 7.3125 8.453125 7.164062 8.476562 C 7.097656 8.488281 7.097656 8.488281 7.03125 8.496094 C 7 8.503906 6.96875 8.507812 6.9375 8.511719 C 7.058594 7.394531 7.492188 6.398438 8.363281 5.664062 C 8.671875 5.417969 9 5.230469 9.375 5.101562 C 9.40625 5.089844 9.441406 5.078125 9.472656 5.066406 C 10.296875 4.796875 11.203125 4.949219 11.886719 5.476562 Z M 11.886719 5.476562 "/>
<path style=" stroke:none;fill-rule:nonzero;fill:rgb(98.039216%,98.039216%,98.039216%);fill-opacity:1;" d="M 7.726562 9.488281 C 7.691406 9.558594 7.65625 9.632812 7.621094 9.703125 C 7.601562 9.742188 7.582031 9.78125 7.558594 9.824219 C 7.425781 10.074219 7.425781 10.074219 7.273438 10.128906 C 7.230469 10.136719 7.1875 10.148438 7.140625 10.15625 C 6.710938 10.273438 6.421875 10.460938 6.191406 10.84375 C 6.085938 11.132812 6.117188 11.4375 6.242188 11.714844 C 6.453125 12.085938 6.773438 12.28125 7.171875 12.417969 C 7.332031 12.453125 7.476562 12.464844 7.640625 12.460938 C 7.671875 12.460938 7.699219 12.460938 7.730469 12.460938 C 7.96875 12.457031 8.175781 12.421875 8.398438 12.335938 C 8.4375 12.324219 8.472656 12.3125 8.507812 12.300781 C 9.234375 12.027344 9.792969 11.464844 10.121094 10.765625 C 10.210938 10.570312 10.28125 10.367188 10.351562 10.164062 C 10.015625 10.164062 9.683594 10.164062 9.335938 10.164062 C 9.351562 10.113281 9.363281 10.0625 9.375 10.011719 C 9.382812 9.976562 9.390625 9.945312 9.394531 9.910156 C 9.445312 9.765625 9.484375 9.699219 9.601562 9.601562 C 9.855469 9.539062 10.128906 9.558594 10.386719 9.5625 C 10.539062 9.5625 10.6875 9.546875 10.835938 9.523438 C 10.882812 9.515625 10.925781 9.507812 10.972656 9.503906 C 11 9.496094 11.03125 9.492188 11.0625 9.488281 C 11.058594 10.316406 10.660156 11.164062 10.164062 11.8125 C 10.140625 11.84375 10.117188 11.871094 10.09375 11.902344 C 9.585938 12.511719 8.832031 12.929688 8.046875 13.039062 C 7.992188 13.042969 7.933594 13.046875 7.875 13.050781 C 7.808594 13.054688 7.808594 13.054688 7.742188 13.058594 C 7.140625 13.085938 6.574219 12.894531 6.101562 12.519531 C 5.761719 12.203125 5.574219 11.785156 5.542969 11.328125 C 5.527344 10.839844 5.691406 10.449219 6.011719 10.085938 C 6.453125 9.664062 7.128906 9.480469 7.726562 9.488281 Z M 7.726562 9.488281 "/>
<path style=" stroke:none;fill-rule:nonzero;fill:rgb(98.039216%,98.039216%,98.039216%);fill-opacity:1;" d="M 10.125 6.976562 C 10.214844 7.035156 10.214844 7.035156 10.273438 7.125 C 10.304688 7.367188 10.226562 7.503906 10.101562 7.703125 C 10.0625 7.765625 10.027344 7.832031 9.988281 7.894531 C 9.96875 7.925781 9.945312 7.960938 9.925781 7.996094 C 9.816406 8.175781 9.710938 8.363281 9.601562 8.546875 C 9.582031 8.582031 9.558594 8.621094 9.535156 8.660156 C 9.375 8.9375 9.214844 9.210938 9.058594 9.488281 C 8.886719 9.789062 8.714844 10.085938 8.539062 10.382812 C 8.519531 10.421875 8.496094 10.457031 8.476562 10.492188 C 8.457031 10.527344 8.4375 10.558594 8.417969 10.59375 C 8.371094 10.675781 8.324219 10.757812 8.28125 10.839844 C 8.210938 10.949219 8.210938 10.949219 8.101562 11.023438 C 7.964844 11.042969 7.898438 11.042969 7.785156 10.964844 C 7.703125 10.84375 7.695312 10.753906 7.726562 10.613281 C 7.789062 10.460938 7.871094 10.324219 7.953125 10.183594 C 7.992188 10.121094 7.992188 10.121094 8.027344 10.058594 C 8.101562 9.929688 8.175781 9.800781 8.25 9.675781 C 8.292969 9.601562 8.335938 9.523438 8.378906 9.449219 C 8.464844 9.304688 8.550781 9.15625 8.636719 9.007812 C 8.777344 8.773438 8.910156 8.539062 9.046875 8.300781 C 9.414062 7.652344 9.414062 7.652344 9.59375 7.347656 C 9.609375 7.320312 9.621094 7.296875 9.636719 7.269531 C 9.777344 7.035156 9.835938 6.941406 10.125 6.976562 Z M 10.125 6.976562 "/>
</g>
</svg>
