<svg width="128" height="128" viewBox="0 0 128 128" fill="none" xmlns="http://www.w3.org/2000/svg">
<g clip-path="url(#clip0_96_115)">
<circle cx="64.0005" cy="64" r="43.8462" fill="white"/>
<circle cx="64.0005" cy="64" r="47.4087" stroke="white" stroke-opacity="0.1" stroke-width="7.125"/>
<mask id="path-3-outside-1_96_115" maskUnits="userSpaceOnUse" x="-1" y="-1" width="130" height="130" fill="black">
<rect fill="white" x="-1" y="-1" width="130" height="130"/>
<path d="M64 7C95.4802 7 121 32.5198 121 64C121 95.4802 95.4802 121 64 121C32.5198 121 7 95.4802 7 64C7 32.5198 32.5198 7 64 7ZM72.2158 66.8486C65.8635 67.2094 61.8855 65.7533 55.5332 66.1113C54.0738 66.1885 52.6259 66.4138 51.2129 66.7842C45.2321 68.3326 41.8044 72.3749 42.0947 77.9141C42.4692 84.7968 49.4025 89.0353 56.3438 88.6396C67.6485 87.9934 75.9956 77.7176 76.9238 66.0928C76.81 66.1277 76.6714 66.1621 76.5576 66.1943C75.1359 66.5552 73.6814 66.7744 72.2158 66.8486ZM71.5049 38.9707C60.2001 39.6171 51.8529 49.8926 50.9248 61.5176C51.0387 61.4826 51.1771 61.4471 51.291 61.4121C52.7126 61.0512 54.1673 60.8321 55.6328 60.7578C61.9854 60.4024 65.9639 61.8591 72.3164 61.501C73.7758 61.4238 75.2237 61.1986 76.6367 60.8281C82.6173 59.277 86.0577 55.2353 85.7539 49.6963C85.3794 42.8134 78.4463 38.5749 71.5049 38.9707Z"/>
</mask>
<path d="M64 7C95.4802 7 121 32.5198 121 64C121 95.4802 95.4802 121 64 121C32.5198 121 7 95.4802 7 64C7 32.5198 32.5198 7 64 7ZM72.2158 66.8486C65.8635 67.2094 61.8855 65.7533 55.5332 66.1113C54.0738 66.1885 52.6259 66.4138 51.2129 66.7842C45.2321 68.3326 41.8044 72.3749 42.0947 77.9141C42.4692 84.7968 49.4025 89.0353 56.3438 88.6396C67.6485 87.9934 75.9956 77.7176 76.9238 66.0928C76.81 66.1277 76.6714 66.1621 76.5576 66.1943C75.1359 66.5552 73.6814 66.7744 72.2158 66.8486ZM71.5049 38.9707C60.2001 39.6171 51.8529 49.8926 50.9248 61.5176C51.0387 61.4826 51.1771 61.4471 51.291 61.4121C52.7126 61.0512 54.1673 60.8321 55.6328 60.7578C61.9854 60.4024 65.9639 61.8591 72.3164 61.501C73.7758 61.4238 75.2237 61.1986 76.6367 60.8281C82.6173 59.277 86.0577 55.2353 85.7539 49.6963C85.3794 42.8134 78.4463 38.5749 71.5049 38.9707Z" fill="url(#paint0_linear_96_115)"/>
<path d="M72.2158 66.8486L71.8553 59.7328L71.8335 59.7339L71.8118 59.7351L72.2158 66.8486ZM55.5332 66.1113L55.9096 73.2264L55.9219 73.2257L55.9342 73.225L55.5332 66.1113ZM51.2129 66.7842L52.9986 73.6818L53.0091 73.6791L53.0196 73.6763L51.2129 66.7842ZM42.0947 77.9141L34.9795 78.287L34.9799 78.2941L34.9802 78.3012L42.0947 77.9141ZM56.3438 88.6396L56.7492 95.7531L56.7504 95.753L56.3438 88.6396ZM76.9238 66.0928L84.0262 66.6599L84.8612 56.2031L74.833 59.2815L76.9238 66.0928ZM76.5576 66.1943L78.3106 73.1003L78.4062 73.076L78.5011 73.0491L76.5576 66.1943ZM71.5049 38.9707L71.0992 31.8573L71.0981 31.8573L71.5049 38.9707ZM50.9248 61.5176L43.8224 60.9506L42.9875 71.4091L53.0168 68.3285L50.9248 61.5176ZM51.291 61.4121L49.538 54.5061L49.3676 54.5494L49.1995 54.601L51.291 61.4121ZM55.6328 60.7578L55.9935 67.8737L56.0122 67.8727L56.0309 67.8717L55.6328 60.7578ZM72.3164 61.501L71.9401 54.3859L71.9277 54.3866L71.9154 54.3873L72.3164 61.501ZM76.6367 60.8281L74.848 53.9313L74.839 53.9337L74.8299 53.936L76.6367 60.8281ZM85.7539 49.6963L78.6394 50.0834L78.6396 50.0865L85.7539 49.6963ZM64 7V14.125C91.5452 14.125 113.875 36.4548 113.875 64H121H128.125C128.125 28.5847 99.4153 -0.125 64 -0.125V7ZM121 64H113.875C113.875 91.5452 91.5452 113.875 64 113.875V121V128.125C99.4153 128.125 128.125 99.4153 128.125 64H121ZM64 121V113.875C36.4548 113.875 14.125 91.5452 14.125 64H7H-0.125C-0.125 99.4153 28.5847 128.125 64 128.125V121ZM7 64H14.125C14.125 36.4548 36.4548 14.125 64 14.125V7V-0.125C28.5847 -0.125 -0.125 28.5847 -0.125 64H7ZM72.2158 66.8486L71.8118 59.7351C69.2779 59.879 67.2166 59.6708 64.6267 59.3958C62.0531 59.1226 58.9496 58.7824 55.1322 58.9976L55.5332 66.1113L55.9342 73.225C58.4691 73.0821 60.5308 73.291 63.1223 73.5662C65.6976 73.8396 68.8014 74.179 72.6198 73.9622L72.2158 66.8486ZM55.5332 66.1113L55.1569 58.9963C53.2158 59.0989 51.2885 59.3986 49.4062 59.8921L51.2129 66.7842L53.0196 73.6763C53.9632 73.429 54.9319 73.2781 55.9096 73.2264L55.5332 66.1113ZM51.2129 66.7842L49.4272 59.8866C45.3247 60.9487 41.5376 63.015 38.8112 66.3121C36.0225 69.6846 34.7478 73.8673 34.9795 78.287L42.0947 77.9141L49.21 77.5411C49.1513 76.4216 49.4452 75.8136 49.793 75.393C50.2031 74.897 51.1202 74.1681 52.9986 73.6818L51.2129 66.7842ZM42.0947 77.9141L34.9802 78.3012C35.6478 90.5698 47.4975 96.2804 56.7492 95.7531L56.3438 88.6396L55.9383 81.5262C53.97 81.6384 52.1153 81.0682 50.8677 80.1869C49.7044 79.3651 49.2598 78.4577 49.2092 77.527L42.0947 77.9141ZM56.3438 88.6396L56.7504 95.753C72.5031 94.8525 82.8923 80.8609 84.0262 66.6599L76.9238 66.0928L69.8214 65.5257C69.0989 74.5744 62.794 81.1343 55.9371 81.5263L56.3438 88.6396ZM76.9238 66.0928L74.833 59.2815C74.8761 59.2682 74.9044 59.2603 74.9091 59.259C74.9142 59.2575 74.9107 59.2585 74.8883 59.2646C74.8772 59.2676 74.8659 59.2706 74.8487 59.2752C74.8331 59.2794 74.8124 59.2849 74.7906 59.2908C74.7486 59.3021 74.6852 59.3194 74.6141 59.3395L76.5576 66.1943L78.5011 73.0491C78.4869 73.0532 78.4835 73.054 78.503 73.0487C78.5121 73.0463 78.5225 73.0435 78.5383 73.0393C78.5524 73.0355 78.5727 73.0301 78.5931 73.0245C78.6617 73.0061 78.8291 72.9611 79.0147 72.9041L76.9238 66.0928ZM76.5576 66.1943L74.8046 59.2883C73.8394 59.5334 72.8512 59.6823 71.8553 59.7328L72.2158 66.8486L72.5764 73.9645C74.5115 73.8665 76.4325 73.577 78.3106 73.1003L76.5576 66.1943ZM71.5049 38.9707L71.0981 31.8573C55.3457 32.758 44.9561 46.7492 43.8224 60.9506L50.9248 61.5176L58.0272 62.0846C58.7496 53.036 65.0545 46.4762 71.9116 46.0841L71.5049 38.9707ZM50.9248 61.5176L53.0168 68.3285C52.9846 68.3384 52.9662 68.3436 52.972 68.3419C52.9789 68.34 52.9898 68.3369 53.025 68.3271C53.0527 68.3193 53.1049 68.3048 53.1595 68.2892C53.2152 68.2733 53.2935 68.2506 53.3825 68.2232L51.291 61.4121L49.1995 54.601C49.2316 54.5911 49.2499 54.586 49.244 54.5877C49.237 54.5897 49.2261 54.5927 49.1908 54.6026C49.163 54.6104 49.1108 54.6249 49.0561 54.6406C49.0003 54.6565 48.9219 54.6792 48.8328 54.7066L50.9248 61.5176ZM51.291 61.4121L53.044 68.3181C54.0091 68.0731 54.9974 67.9242 55.9935 67.8737L55.6328 60.7578L55.2721 53.6419C53.3373 53.74 51.4162 54.0294 49.538 54.5061L51.291 61.4121ZM55.6328 60.7578L56.0309 67.8717C58.5663 67.7298 60.6285 67.9394 63.2203 68.2154C65.7957 68.4896 68.8994 68.8299 72.7175 68.6147L72.3164 61.501L71.9154 54.3873C69.3809 54.5302 67.3191 54.3212 64.729 54.0454C62.1552 53.7714 59.0519 53.4304 55.2348 53.6439L55.6328 60.7578ZM72.3164 61.501L72.6928 68.616C74.6338 68.5134 76.561 68.2137 78.4435 67.7202L76.6367 60.8281L74.8299 53.936C73.8864 54.1834 72.9179 54.3342 71.9401 54.3859L72.3164 61.501ZM76.6367 60.8281L78.4254 67.7249C82.524 66.662 86.313 64.5966 89.041 61.3004C91.8333 57.9264 93.1112 53.7374 92.8682 49.3061L85.7539 49.6963L78.6396 50.0865C78.7003 51.1942 78.41 51.7955 78.0629 52.215C77.6515 52.7121 76.7301 53.4432 74.848 53.9313L76.6367 60.8281ZM85.7539 49.6963L92.8684 49.3092C92.2009 37.0405 80.3514 31.3296 71.0992 31.8573L71.5049 38.9707L71.9105 46.0841C73.8789 45.9719 75.7334 46.542 76.9809 47.4233C78.1441 48.2451 78.5888 49.1524 78.6394 50.0834L85.7539 49.6963Z" fill="white" fill-opacity="0.1" mask="url(#path-3-outside-1_96_115)"/>
</g>
<defs>
<linearGradient id="paint0_linear_96_115" x1="70.2143" y1="55.6429" x2="41.0714" y2="129.786" gradientUnits="userSpaceOnUse">
<stop stop-color="#7140FD"/>
<stop offset="1" stop-color="#BD34F8"/>
</linearGradient>
<clipPath id="clip0_96_115">
<rect width="128" height="128" fill="white"/>
</clipPath>
</defs>
</svg>
