<svg width="32" height="32" viewBox="0 0 32 32" fill="none" xmlns="http://www.w3.org/2000/svg">
<g clip-path="url(#clip0_922_15731)">
<mask id="mask0_922_15731" style="mask-type:alpha" maskUnits="userSpaceOnUse" x="0" y="0" width="32" height="32">
<path d="M16 0C4 0 0 4 0 16C0 28 4 32 16 32C28 32 32 28 32 16C32 4 28 0 16 0Z" fill="white"/>
</mask>
<g mask="url(#mask0_922_15731)">
<circle cx="15.9984" cy="16.0004" r="21.6" fill="#7140FD"/>
<path fill-rule="evenodd" clip-rule="evenodd" d="M20.0152 8.79077C19.8237 9.06289 19.6595 9.35229 19.5271 9.65896C19.4637 9.80582 19.4047 9.94836 19.3543 10.088C19.1729 10.5761 19.0591 11.021 18.9454 11.4673L18.9402 11.4876L18.9402 11.4876L18.9402 11.4877L18.9402 11.4877C18.7951 12.0525 18.6497 12.6184 18.3637 13.2743C18.2313 13.5795 18.0686 13.8732 17.8785 14.1482C17.8713 14.1597 17.8627 14.1713 17.854 14.1813C17.8484 14.1898 17.8421 14.1984 17.8364 14.2061L17.8364 14.2061L17.8364 14.2061L17.8281 14.2173C20.3794 14.9415 23.2317 13.9798 24.2669 11.62C24.9032 10.1715 24.5491 8.35739 23.1121 7.73108C21.956 7.22716 20.8214 7.64038 20.0166 8.79077H20.0152ZM5.95135 16.017C6.05933 15.7016 6.19899 15.3993 6.36888 15.1128C6.45095 14.9746 6.53158 14.845 6.61509 14.7212C6.90449 14.2878 7.1982 13.935 7.49336 13.5808L7.52088 13.5477C7.88899 13.1038 8.25817 12.6586 8.61639 12.0503C8.78629 11.7638 8.92883 11.46 9.03969 11.1462L9.04617 11.126L9.05265 11.1058C9.05697 11.09 9.06129 11.0756 9.06561 11.0641C11.1475 12.7069 12.0388 15.5821 10.7343 17.8023C9.9338 19.1672 8.25645 19.9433 6.90737 19.1456C5.82176 18.5049 5.49205 17.343 5.95135 16.017ZM25.5001 21.5532C22.7464 21.5532 20.5144 19.3211 20.5144 16.5675H17.6025C17.6025 20.9293 21.1383 24.465 25.5001 24.465V21.5532ZM15.9942 16.5675C15.9942 20.9293 12.4585 24.465 8.09668 24.465V21.5532C10.8503 21.5532 13.0824 19.3211 13.0824 16.5675H15.9942ZM15.9924 16.5662V7.75183H13.0806V16.5662H15.9924Z" fill="white"/>
</g>
</g>
<defs>
<clipPath id="clip0_922_15731">
<rect width="32" height="32" fill="white"/>
</clipPath>
</defs>
</svg>
