<svg width="210" height="32" viewBox="0 0 210 32" fill="none" xmlns="http://www.w3.org/2000/svg">
<g clip-path="url(#clip0_922_15723)">
<mask id="mask0_922_15723" style="mask-type:alpha" maskUnits="userSpaceOnUse" x="0" y="0" width="32" height="32">
<path d="M16 0C4 0 0 4 0 16C0 28 4 32 16 32C28 32 32 28 32 16C32 4 28 0 16 0Z" fill="white"/>
</mask>
<g mask="url(#mask0_922_15723)">
<circle cx="15.9984" cy="16.0004" r="21.6" fill="#7140FD"/>
<path fill-rule="evenodd" clip-rule="evenodd" d="M20.0152 8.79077C19.8237 9.06289 19.6595 9.35229 19.5271 9.65896C19.4637 9.80582 19.4047 9.94836 19.3543 10.088C19.1729 10.5761 19.0591 11.021 18.9454 11.4673L18.9402 11.4876L18.9402 11.4876L18.9402 11.4877L18.9402 11.4877C18.7951 12.0525 18.6497 12.6184 18.3637 13.2743C18.2313 13.5795 18.0686 13.8732 17.8785 14.1482C17.8713 14.1597 17.8627 14.1713 17.854 14.1813C17.8484 14.1898 17.8421 14.1984 17.8364 14.2061L17.8364 14.2061L17.8364 14.2061L17.8281 14.2173C20.3794 14.9415 23.2317 13.9798 24.2669 11.62C24.9032 10.1715 24.5491 8.35739 23.1121 7.73108C21.956 7.22716 20.8214 7.64038 20.0166 8.79077H20.0152ZM5.95135 16.017C6.05933 15.7016 6.19899 15.3993 6.36888 15.1128C6.45095 14.9746 6.53158 14.845 6.61509 14.7212C6.90449 14.2878 7.1982 13.935 7.49336 13.5808L7.52088 13.5477C7.88899 13.1038 8.25817 12.6586 8.61639 12.0503C8.78629 11.7638 8.92883 11.46 9.03969 11.1462L9.04617 11.126L9.05265 11.1058C9.05697 11.09 9.06129 11.0756 9.06561 11.0641C11.1475 12.7069 12.0388 15.5821 10.7343 17.8023C9.9338 19.1672 8.25645 19.9433 6.90737 19.1456C5.82176 18.5049 5.49205 17.343 5.95135 16.017ZM25.5001 21.5532C22.7464 21.5532 20.5144 19.3211 20.5144 16.5675H17.6025C17.6025 20.9293 21.1383 24.465 25.5001 24.465V21.5532ZM15.9942 16.5675C15.9942 20.9293 12.4585 24.465 8.09668 24.465V21.5532C10.8503 21.5532 13.0824 19.3211 13.0824 16.5675H15.9942ZM15.9924 16.5662V7.75183H13.0806V16.5662H15.9924Z" fill="white"/>
</g>
</g>
<path fill-rule="evenodd" clip-rule="evenodd" d="M59.0812 19.9232C59.3288 19.9645 60.5665 19.9335 60.649 19.9232V22.7287H58.7409C57.9157 22.7081 57.2283 22.6406 56.5204 22.3704C55.9121 22.1348 55.3937 21.7131 55.0392 21.1655C54.6677 20.545 54.5223 19.8201 54.5223 19.1084V12.5382H52.707V9.89776H54.5223V7.00977H57.9054V9.89776H60.0508V12.5382H57.9054L57.9054 18.6443C57.9054 18.8918 57.9438 19.1631 58.054 19.3987C58.1442 19.5692 58.2924 19.7018 58.4719 19.7725C58.6705 19.8477 58.8131 19.8923 59.0812 19.9232ZM47.7242 15.126C48.9562 15.3783 49.874 15.7854 50.4776 16.3472C50.7773 16.6295 51.0127 16.973 51.1677 17.3544C51.3227 17.7358 51.3869 18.1489 51.3869 18.5615C51.3869 19.3453 51.1368 20.1164 50.6564 20.7421C50.1309 21.3965 49.4422 21.901 48.6598 22.2047C47.7323 22.5684 46.7422 22.7459 45.7461 22.7271C44.0683 22.7255 42.7341 22.3757 41.7436 21.6777C41.2656 21.352 40.8627 20.9279 40.562 20.4338C40.2613 19.9397 40 19.1597 40 18.6027H43.4553C43.4759 18.8399 43.5843 19.0854 43.7143 19.2849C43.8444 19.4844 44.0135 19.6555 44.2115 19.7879C44.6744 20.0709 45.2074 20.2021 45.7531 20.2021C46.2657 20.2021 46.7893 20.0879 47.2413 19.8297C47.4106 19.7396 47.5529 19.6061 47.6537 19.4429C47.7544 19.2798 47.81 19.0927 47.8147 18.901C47.814 18.7473 47.777 18.5959 47.7069 18.4592C47.6367 18.3224 47.5352 18.2041 47.4107 18.114C47.0446 17.8693 46.622 17.7312 46.1919 17.6496L43.9979 17.2132C42.7612 16.9655 41.8419 16.5368 41.2398 15.927C40.9417 15.6181 40.7092 15.2522 40.556 14.8513C40.4028 14.4504 40.3321 14.0226 40.3483 13.5937C40.3305 12.8384 40.564 12.0985 41.0122 11.4903C41.4975 10.8718 42.1455 10.4007 42.8835 10.1298C43.7892 9.79395 44.7501 9.6317 45.7159 9.65156C47.3163 9.65311 48.5762 9.99129 49.4956 10.6661C49.9434 10.9875 50.3186 11.3997 50.5966 11.8757C50.8746 12.3517 51.0775 13.2599 51.0775 13.7756H47.9007C47.8492 13.4972 47.7031 13.0941 47.5175 12.881C47.3245 12.6496 47.0806 12.466 46.8048 12.3447C46.4728 12.2026 46.1141 12.1337 45.7531 12.1427C45.2714 12.1269 44.807 12.2298 44.3884 12.4688C44.2206 12.5551 44.0675 12.701 43.9689 12.8619C43.8702 13.0228 43.8176 13.2076 43.8168 13.3964C43.8156 13.5431 43.8476 13.6882 43.9103 13.8208C43.973 13.9535 44.0649 14.0703 44.179 14.1625C44.5512 14.4264 44.9761 14.5746 45.4327 14.6617L47.7242 15.126ZM72.8824 11.997C72.5982 11.4636 72.1897 11.0064 71.6914 10.6644C71.167 10.3091 70.5837 10.0497 69.9687 9.89825C69.3069 9.7312 68.613 9.64993 67.9425 9.64993C67.0452 9.64991 66.1285 9.79201 65.2766 10.1142C64.5562 10.3876 63.9132 10.8322 63.4031 11.4096C62.8438 12.0671 62.4244 12.9045 62.4244 13.7756H65.6425C65.725 13.2496 66.0661 12.8852 66.4235 12.6308C66.8686 12.3332 67.3848 12.1955 67.9233 12.1955C68.4155 12.1955 68.9295 12.3339 69.3256 12.6424C69.492 12.7955 69.6222 12.9837 69.7069 13.1933C69.7917 13.4028 69.8402 13.6257 69.8269 13.8514C69.82 13.9692 69.7959 14.1427 69.7427 14.2492C69.6895 14.3557 69.5771 14.4709 69.4786 14.5379C69.171 14.7116 68.8368 14.7892 68.4832 14.842C68.0621 14.905 67.5413 14.9589 66.8719 15.0283L66.73 15.043C66.1252 15.0996 65.5258 15.2044 64.9377 15.3564C64.398 15.4912 63.8842 15.714 63.417 16.0158C62.9717 16.3064 62.6081 16.706 62.3606 17.1766C62.0862 17.7257 61.9706 18.3345 61.9706 18.9431C61.9706 19.6754 62.1374 20.4098 62.5208 21.0375C62.887 21.5942 63.4073 22.0323 64.0183 22.2982C64.6997 22.5915 65.4362 22.7284 66.1788 22.7284C66.7358 22.7284 67.3005 22.6483 67.8351 22.4723C68.2853 22.3208 68.7022 22.0844 69.0633 21.7758C69.3994 21.4825 69.7913 21.1243 69.9951 20.7275L70.0054 22.4809L73.3782 22.4809V13.9407C73.3782 13.2702 73.1836 12.5985 72.8824 11.997ZM69.8317 17.4808C69.7203 18.7391 68.9704 19.8651 67.7701 20.2133C67.2163 20.3772 66.5428 20.3286 66.0807 19.9624C65.8417 19.7731 65.6645 19.517 65.5715 19.2266C65.3393 18.3769 65.8246 17.6433 66.8507 17.2997C67.2519 17.1747 67.6657 17.1186 68.0796 17.0626L68.0796 17.0626C68.4634 17.0106 68.8472 16.9586 69.2211 16.8516C69.4272 16.7918 69.6249 16.7164 69.8174 16.6217L69.8201 16.6333C69.862 16.9128 69.8615 17.2003 69.8317 17.4808ZM81.0734 19.9232C81.321 19.9645 82.5587 19.9335 82.6412 19.9232V22.7287H80.7331C79.9079 22.7081 79.2205 22.6406 78.5126 22.3704C77.9043 22.1348 77.3859 21.7131 77.0314 21.1655C76.6598 20.545 76.5145 19.8201 76.5145 19.1084V12.5382H74.6992V9.89776H76.5145V7.00977H79.8976V9.89776H82.043V12.5382H79.8976V18.6443C79.8976 18.8918 79.936 19.1631 80.0462 19.3987C80.1364 19.5692 80.2846 19.7018 80.4641 19.7725C80.6627 19.8477 80.8053 19.8923 81.0734 19.9232ZM91.9629 9.89746V17.1586C91.9629 17.6538 91.8643 18.1504 91.6233 18.5864C91.4126 18.9539 91.1029 19.2548 90.7295 19.4547C90.3644 19.6495 89.9568 19.7508 89.5431 19.7495C89.2451 19.7636 88.9475 19.7125 88.6713 19.5998C88.395 19.4872 88.1466 19.3156 87.9435 19.0971C87.5256 18.6034 87.3107 17.9695 87.3422 17.3234V9.89746H83.959V17.9426C83.959 18.8193 84.1294 19.707 84.5081 20.504C84.8413 21.1839 85.3637 21.7531 86.0126 22.1431C86.6905 22.5378 87.4658 22.7284 88.2497 22.7284C89.0955 22.7284 89.9489 22.5123 90.6675 22.0456C91.3168 21.6118 91.831 20.9833 92.1073 20.253V22.4808L95.3459 22.4808V9.89749L91.9629 9.89746ZM104.392 15.126C105.624 15.3783 106.542 15.7853 107.146 16.3472C107.445 16.6295 107.681 16.973 107.836 17.3544C107.991 17.7358 108.055 18.1489 108.055 18.5614C108.055 19.3453 107.805 20.1164 107.324 20.742C106.799 21.3965 106.11 21.901 105.328 22.2047C104.4 22.5684 103.41 22.7459 102.414 22.727C100.736 22.7255 99.4021 22.3757 98.4115 21.6777C97.9335 21.352 97.5307 20.9278 97.23 20.4337C96.9293 19.9396 96.668 19.1597 96.668 18.6027H100.123C100.144 18.8399 100.252 19.0853 100.382 19.2848C100.512 19.4843 100.681 19.6554 100.879 19.7878C101.342 20.0709 101.875 20.2021 102.421 20.2021C102.934 20.2021 103.457 20.0879 103.909 19.8296C104.079 19.7396 104.221 19.6061 104.322 19.4429C104.422 19.2797 104.478 19.0927 104.483 18.901C104.482 18.7473 104.445 18.5959 104.375 18.4591C104.305 18.3224 104.203 18.2041 104.079 18.1139C103.713 17.8693 103.29 17.7312 102.86 17.6496L100.666 17.2131C99.4292 16.9655 98.5098 16.5368 97.9077 15.9269C97.6097 15.6181 97.3771 15.2522 97.2239 14.8513C97.0707 14.4503 97.0001 14.0226 97.0162 13.5937C96.9985 12.8384 97.232 12.0985 97.6802 11.4903C98.1655 10.8718 98.8135 10.4007 99.5515 10.1298C100.457 9.79392 101.418 9.63167 102.384 9.65153C103.984 9.65308 105.244 9.99126 106.164 10.6661C106.611 10.9875 106.987 11.3996 107.265 11.8756C107.543 12.3517 107.745 13.2599 107.745 13.7756H104.569C104.517 13.4971 104.371 13.0941 104.186 12.8809C103.992 12.6496 103.749 12.466 103.473 12.3446C103.141 12.2026 102.782 12.1337 102.421 12.1427C101.939 12.1269 101.475 12.2298 101.056 12.4687C100.889 12.555 100.736 12.7009 100.637 12.8618C100.538 13.0227 100.486 13.2076 100.485 13.3963C100.484 13.5431 100.516 13.6882 100.578 13.8208C100.641 13.9535 100.733 14.0703 100.847 14.1625C101.219 14.4263 101.644 14.5746 102.101 14.6616L104.392 15.126Z" fill="#09101C"/>
<path d="M190.005 18.3561L189.989 15.3187H190.421L195.514 9.90956H198.493L192.685 16.0676H192.294L190.005 18.3561ZM187.717 22.6917V7H190.205V22.6917H187.717ZM195.789 22.6917L191.212 16.6169L192.926 14.8776L198.843 22.6917H195.789Z" fill="#09101C"/>
<path d="M178.889 22.6923V9.91015H181.294V11.9407H181.427C181.66 11.2527 182.07 10.7118 182.658 10.3179C183.252 9.91847 183.923 9.71875 184.672 9.71875C184.828 9.71875 185.011 9.7243 185.222 9.73539C185.438 9.74649 185.607 9.76036 185.729 9.777V12.157C185.629 12.1293 185.452 12.0988 185.197 12.0655C184.941 12.0266 184.686 12.0072 184.431 12.0072C183.843 12.0072 183.319 12.1321 182.858 12.3817C182.403 12.6258 182.043 12.967 181.776 13.4053C181.51 13.838 181.377 14.3318 181.377 14.8865V22.6923H178.889Z" fill="#09101C"/>
<path d="M170.945 22.9488C169.746 22.9488 168.701 22.6742 167.807 22.1249C166.914 21.5757 166.221 20.8073 165.727 19.8198C165.233 18.8323 164.986 17.6783 164.986 16.358C164.986 15.032 165.233 13.8725 165.727 12.8795C166.221 11.8864 166.914 11.1153 167.807 10.566C168.701 10.0168 169.746 9.74219 170.945 9.74219C172.143 9.74219 173.189 10.0168 174.082 10.566C174.975 11.1153 175.669 11.8864 176.162 12.8795C176.656 13.8725 176.903 15.032 176.903 16.358C176.903 17.6783 176.656 18.8323 176.162 19.8198C175.669 20.8073 174.975 21.5757 174.082 22.1249C173.189 22.6742 172.143 22.9488 170.945 22.9488ZM170.953 20.86C171.73 20.86 172.373 20.6548 172.884 20.2442C173.394 19.8337 173.771 19.2872 174.015 18.6048C174.265 17.9225 174.39 17.1707 174.39 16.3496C174.39 15.5341 174.265 14.7852 174.015 14.1028C173.771 13.4148 173.394 12.8628 172.884 12.4468C172.373 12.0307 171.73 11.8226 170.953 11.8226C170.171 11.8226 169.522 12.0307 169.006 12.4468C168.495 12.8628 168.115 13.4148 167.866 14.1028C167.622 14.7852 167.499 15.5341 167.499 16.3496C167.499 17.1707 167.622 17.9225 167.866 18.6048C168.115 19.2872 168.495 19.8337 169.006 20.2442C169.522 20.6548 170.171 20.86 170.953 20.86Z" fill="#09101C"/>
<path d="M150.675 22.6923L146.914 9.91016H149.485L151.99 19.2971H152.115L154.628 9.91016H157.2L159.696 19.2555H159.821L162.309 9.91016H164.881L161.128 22.6923H158.589L155.993 13.4635H155.802L153.205 22.6923H150.675Z" fill="#09101C"/>
<path d="M145.316 9.90962V11.9068H138.334V9.90962H145.316ZM140.206 7H142.695V18.9387C142.695 19.4214 142.767 19.7847 142.911 20.0288C143.055 20.2674 143.241 20.4311 143.468 20.5198C143.702 20.603 143.954 20.6447 144.226 20.6447C144.425 20.6447 144.6 20.6308 144.75 20.603C144.9 20.5753 145.016 20.5531 145.1 20.5365L145.549 22.5919C145.405 22.6474 145.199 22.7029 144.933 22.7584C144.667 22.8194 144.334 22.8527 143.935 22.8582C143.28 22.8693 142.67 22.7528 142.104 22.5087C141.538 22.2646 141.08 21.8874 140.731 21.377C140.381 20.8666 140.206 20.2258 140.206 19.4546V7Z" fill="#09101C"/>
<path d="M132.226 22.8109C130.984 22.8109 129.915 22.543 129.018 22.0125C128.127 21.4765 127.438 20.7244 126.951 19.7563C126.47 18.7826 126.223 17.6331 126.223 16.3335C126.223 15.0546 126.472 13.8446 126.954 12.86C127.44 11.8755 128.119 11.107 128.988 10.5546C129.863 10.0021 130.885 9.73242 132.04 9.73242C132.762 9.73242 133.457 9.84349 134.124 10.0787C134.792 10.3139 135.391 10.6831 135.921 11.1863C136.452 11.6895 136.87 12.3431 137.176 13.1472C137.483 13.9458 137.63 14.9841 137.63 16.1272V16.9936H127.625V15.1577H135.237C135.237 14.5123 135.101 13.8747 134.838 13.3769C134.576 12.8737 134.206 12.4771 133.731 12.1873C133.26 11.8974 132.708 11.7524 132.073 11.7524C131.384 11.7524 130.782 11.922 130.268 12.2611C129.76 12.5947 129.366 13.0323 129.087 13.5738C128.813 14.1098 128.674 14.7542 128.674 15.3832V16.819C128.674 17.6614 128.822 18.3779 129.117 18.9686C129.418 19.5593 129.836 20.0106 130.372 20.3224C130.908 20.6287 131.534 20.7818 132.251 20.7818C132.716 20.7818 133.14 20.7162 133.523 20.5849C133.906 20.4482 134.236 20.2458 134.515 19.9778C134.794 19.7098 135.01 19.3678 135.157 18.974H137.63C137.444 19.6577 136.958 20.6861 136.476 21.2002C136 21.7089 135.402 22.1055 134.68 22.3899C133.963 22.6688 133.144 22.8109 132.226 22.8109Z" fill="#09101C"/>
<path d="M116.685 15.1014V22.6908H114.197V9.90862H116.586V11.9891H116.744C117.038 11.3122 117.498 10.7685 118.125 10.358C118.758 9.94746 119.554 9.74219 120.513 9.74219C121.384 9.74219 122.147 9.92527 122.802 10.2914C123.457 10.652 123.964 11.1902 124.325 11.9058C124.685 12.6215 124.866 13.5064 124.866 14.5605V22.6908H122.378V14.8601C122.378 13.9336 122.136 13.2096 121.654 12.6881C121.171 12.161 120.508 11.8975 119.665 11.8975C119.088 11.8975 118.574 12.0223 118.125 12.272C117.681 12.5216 117.329 12.8878 117.068 13.3705C116.813 13.8476 116.685 14.4246 116.685 15.1014Z" fill="#09101C"/>
<path d="M110.807 23.0003C110.352 23.0003 109.963 22.8405 109.639 22.5208C109.32 22.2011 109.162 21.8141 109.166 21.3598C109.162 20.914 109.32 20.5333 109.639 20.2178C109.963 19.8981 110.352 19.7383 110.807 19.7383C111.236 19.7383 111.614 19.8981 111.942 20.2178C112.275 20.5333 112.443 20.914 112.447 21.3598C112.443 21.6627 112.363 21.9382 112.207 22.1864C112.056 22.4346 111.856 22.6323 111.608 22.7795C111.364 22.9267 111.097 23.0003 110.807 23.0003Z" fill="#09101C"/>
<defs>
<clipPath id="clip0_922_15723">
<rect width="32" height="32" fill="white"/>
</clipPath>
</defs>
</svg>
