<svg width="160" height="45" viewBox="0 0 1492 240" fill="none" xmlns="http://www.w3.org/2000/svg">
<path fill-rule="evenodd" clip-rule="evenodd" d="M613.918 148.533C615.809 148.848 625.263 148.612 625.893 148.533V169.95H611.318C605.015 169.793 599.765 169.278 594.357 167.215C589.711 165.416 585.751 162.197 583.043 158.016C580.205 153.279 579.095 147.745 579.095 142.312V92.155H565.228V71.9975H579.095V49.9503L604.936 49.9503V71.9975H621.324V92.155H604.936V138.769C604.936 140.659 605.229 142.73 606.071 144.529C606.761 145.83 607.893 146.842 609.264 147.382C610.781 147.956 611.87 148.297 613.918 148.533ZM446.419 148.534C448.31 148.849 457.764 148.612 458.394 148.534V169.951H443.819C437.516 169.794 432.266 169.279 426.858 167.216C422.212 165.417 418.252 162.198 415.544 158.017C412.706 153.28 411.596 147.746 411.596 142.313V92.1558H397.729V71.9984H411.596V49.9512H437.437V71.9984H453.825V92.1558H437.437V138.77C437.437 140.66 437.73 142.731 438.572 144.53C439.262 145.831 440.394 146.843 441.765 147.383C443.282 147.957 444.371 148.298 446.419 148.534ZM359.174 111.911C368.585 113.837 375.596 116.945 380.207 121.234C382.496 123.389 384.294 126.012 385.478 128.923C386.662 131.835 387.153 134.988 387.153 138.138C387.153 144.122 385.242 150.008 381.572 154.785C377.558 159.781 372.298 163.632 366.321 165.951C359.236 168.728 351.674 170.083 344.065 169.939C331.249 169.927 321.058 167.257 313.491 161.928C309.84 159.441 306.763 156.203 304.466 152.431C302.169 148.659 300.173 142.705 300.173 138.453H326.566C326.724 140.264 327.552 142.138 328.545 143.661C329.539 145.184 330.831 146.49 332.343 147.501C335.878 149.662 339.95 150.663 344.118 150.663C348.034 150.663 352.033 149.791 355.486 147.82C356.779 147.132 357.866 146.113 358.636 144.867C359.406 143.622 359.83 142.194 359.866 140.73C359.861 139.557 359.578 138.401 359.042 137.357C358.506 136.313 357.731 135.41 356.78 134.722C353.984 132.854 350.755 131.8 347.47 131.177L330.711 127.845C321.265 125.954 314.242 122.681 309.643 118.026C307.367 115.668 305.59 112.875 304.42 109.814C303.25 106.754 302.71 103.488 302.833 100.214C302.698 94.4475 304.482 88.7994 307.905 84.1561C311.612 79.4346 316.562 75.8382 322.199 73.77C329.117 71.206 336.457 69.9674 343.834 70.119C356.059 70.1308 365.683 72.7125 372.705 77.8642C376.126 80.318 378.992 83.4642 381.115 87.0981C383.239 90.732 384.789 97.6656 384.789 101.603H360.523C360.129 99.4766 359.013 96.4 357.596 94.7726C356.122 93.0063 354.258 91.605 352.152 90.6784C349.616 89.5939 346.876 89.0679 344.118 89.1365C340.439 89.016 336.891 89.8019 333.694 91.6258C332.412 92.2845 331.243 93.3985 330.489 94.6267C329.736 95.855 329.334 97.2665 329.328 98.7073C329.319 99.8274 329.563 100.935 330.042 101.948C330.521 102.96 331.223 103.852 332.094 104.556C334.937 106.57 338.183 107.702 341.671 108.367L359.174 111.911ZM551.315 88.0245C549.145 83.952 546.024 80.4624 542.218 77.8511C538.212 75.1385 533.757 73.1582 529.059 72.0022C524.004 70.727 518.703 70.1066 513.582 70.1066C506.728 70.1064 499.725 71.1912 493.219 73.6505C487.716 75.7377 482.804 79.132 478.907 83.5404C474.635 88.5594 471.432 94.9519 471.432 101.603H496.013C496.643 97.5868 499.249 94.8049 501.979 92.863C505.379 90.5905 509.322 89.5396 513.435 89.5396C517.195 89.5396 521.121 90.5961 524.147 92.9516C525.417 94.1202 526.412 95.5565 527.06 97.1566C527.707 98.7567 528.077 100.458 527.976 102.181C527.923 103.08 527.739 104.405 527.333 105.218C526.926 106.031 526.068 106.91 525.316 107.421C522.966 108.748 520.413 109.34 517.712 109.743C514.496 110.224 510.518 110.636 505.405 111.165L505.405 111.165L504.32 111.278C499.7 111.71 495.122 112.51 490.629 113.671C486.507 114.699 482.583 116.4 479.014 118.704C475.612 120.923 472.835 123.973 470.945 127.566C468.848 131.758 467.965 136.406 467.965 141.051C467.965 146.642 469.24 152.248 472.168 157.041C474.965 161.29 478.94 164.634 483.607 166.665C488.811 168.904 494.437 169.949 500.11 169.949C504.364 169.949 508.678 169.337 512.761 167.994C516.2 166.837 519.385 165.032 522.143 162.677C524.71 160.437 527.704 157.703 529.26 154.673L529.339 168.059L555.102 168.059V102.862C555.102 97.7443 553.616 92.6163 551.315 88.0245ZM528.013 129.888C527.162 139.494 521.433 148.09 512.265 150.749C511.191 151.066 510.084 151.263 508.966 151.334C508.128 151.396 507.286 151.396 506.448 151.334H505.721C503.4 151.149 501.185 150.279 499.36 148.833C497.535 147.388 496.181 145.432 495.471 143.216C493.697 136.729 497.404 131.128 505.242 128.505L506.324 128.169C509.454 127.292 512.089 126.975 514.726 126.657C517.423 126.333 520.12 126.008 523.349 125.085C524.923 124.628 526.433 124.053 527.903 123.33L527.924 123.419C527.995 123.891 528.048 124.37 528.084 124.854C528.214 126.531 528.19 128.216 528.013 129.888ZM697.071 71.9962V127.428C697.071 131.208 696.318 135 694.477 138.328C692.868 141.134 690.502 143.431 687.65 144.957C684.862 146.444 681.748 147.218 678.588 147.208C676.311 147.315 674.039 146.925 671.928 146.065C669.818 145.205 667.921 143.895 666.369 142.227C663.177 138.458 661.536 133.619 661.776 128.686V71.9962H635.933V133.413C635.933 140.106 637.235 146.883 640.128 152.968C642.673 158.158 646.663 162.503 651.62 165.481C656.798 168.493 662.72 169.949 668.708 169.949C675.169 169.949 681.687 168.299 687.176 164.736C692.136 161.425 696.064 156.627 698.174 151.051V168.059H722.913V71.9965L697.071 71.9962ZM792.022 111.911C801.433 113.837 808.443 116.945 813.054 121.234C815.343 123.389 817.141 126.012 818.325 128.923C819.51 131.835 820 134.988 820 138.138C820 144.122 818.089 150.008 814.42 154.785C810.406 159.781 805.145 163.632 799.169 165.951C792.084 168.728 784.521 170.083 776.912 169.939C764.096 169.927 753.905 167.257 746.339 161.928C742.688 159.441 739.61 156.203 737.313 152.431C735.016 148.659 733.021 142.705 733.021 138.453H759.414C759.571 140.264 760.399 142.138 761.393 143.661C762.386 145.184 763.678 146.49 765.19 147.501C768.726 149.662 772.798 150.663 776.965 150.663C780.881 150.663 784.881 149.791 788.333 147.82C789.626 147.132 790.714 146.113 791.483 144.867C792.253 143.622 792.677 142.194 792.713 140.73C792.708 139.557 792.426 138.401 791.89 137.357C791.353 136.313 790.578 135.41 789.628 134.722C786.831 132.854 783.602 131.8 780.317 131.177L763.559 127.845C754.112 125.954 747.09 122.681 742.491 118.026C740.214 115.668 738.437 112.875 737.267 109.814C736.097 106.754 735.557 103.488 735.681 100.214C735.545 94.4475 737.329 88.7994 740.753 84.1561C744.46 79.4346 749.409 75.8382 755.046 73.7701C761.965 71.206 769.305 69.9674 776.682 70.119C788.906 70.1308 798.53 72.7125 805.553 77.8642C808.974 80.318 811.839 83.4642 813.963 87.0981C816.086 90.732 817.636 97.6656 817.637 101.603H793.37C792.977 99.4766 791.861 96.4 790.443 94.7726C788.969 93.0063 787.106 91.6051 784.999 90.6785C782.463 89.5939 779.723 89.068 776.966 89.1365C773.286 89.016 769.739 89.8019 766.542 91.6258C765.26 92.2846 764.09 93.3985 763.337 94.6268C762.583 95.855 762.181 97.2665 762.175 98.7073C762.166 99.8274 762.411 100.935 762.89 101.948C763.369 102.96 764.07 103.852 764.942 104.556C767.785 106.57 771.031 107.702 774.518 108.367L792.022 111.911Z" fill="white"/>
<g clip-path="url(#clip0_3606_42467)">
<path d="M120.069 0C30.0173 0 0 30 0 120C0 210 30.0173 240 120.069 240C210.121 240 240.139 210 240.139 120C240.139 30 210.121 0 120.069 0Z" fill="#09101C"/>
<mask id="path-3-inside-1_3606_42467" fill="white">
<path fill-rule="evenodd" clip-rule="evenodd" d="M136.042 66.0879C112.228 67.4485 94.6451 89.082 92.6902 113.556C92.8102 113.519 92.9431 113.482 93.076 113.445C93.2089 113.408 93.3418 113.371 93.4618 113.335C96.4567 112.575 99.5205 112.113 102.608 111.957C109.294 111.583 114.732 112.162 120.169 112.74C125.612 113.32 131.056 113.899 137.751 113.522C140.825 113.359 143.874 112.884 146.851 112.104C159.449 108.839 166.697 100.33 166.057 88.6681C165.268 74.1778 150.664 65.2545 136.042 66.0879ZM104.157 173.934C127.97 172.574 145.553 150.94 147.508 126.466C147.357 126.513 147.186 126.559 147.021 126.604C146.922 126.63 146.826 126.656 146.737 126.682C143.742 127.442 140.678 127.903 137.591 128.059C130.896 128.439 125.452 127.862 120.009 127.284C114.572 126.707 109.134 126.129 102.448 126.506C99.3734 126.669 96.324 127.143 93.3475 127.923C80.7491 131.183 73.5296 139.692 74.1412 151.354C74.93 165.844 89.5348 174.768 104.157 173.934Z"/>
</mask>
<path d="M92.6902 113.556L85.214 112.959L84.3347 123.966L94.8912 120.725L92.6902 113.556ZM136.042 66.0879L135.615 58.6L135.614 58.6001L136.042 66.0879ZM93.076 113.445L91.0721 106.218L91.072 106.218L93.076 113.445ZM93.4618 113.335L91.6175 106.065L91.438 106.11L91.2609 106.165L93.4618 113.335ZM102.608 111.957L102.987 119.447L103.007 119.446L103.026 119.445L102.608 111.957ZM120.169 112.74L119.375 120.198L119.375 120.198L120.169 112.74ZM137.751 113.522L137.355 106.032L137.342 106.033L137.329 106.034L137.751 113.522ZM146.851 112.104L144.969 104.844L144.96 104.847L144.95 104.849L146.851 112.104ZM166.057 88.6681L158.568 89.0758L158.568 89.0793L166.057 88.6681ZM147.508 126.466L154.984 127.064L155.864 116.056L145.307 119.297L147.508 126.466ZM104.157 173.934L104.584 181.422L104.585 181.422L104.157 173.934ZM147.021 126.604L145.062 119.364L145.062 119.364L147.021 126.604ZM146.737 126.682L148.581 133.951L148.681 133.926L148.781 133.898L146.737 126.682ZM137.591 128.059L137.211 120.569L137.188 120.57L137.166 120.571L137.591 128.059ZM120.009 127.284L119.217 134.742L119.217 134.742L120.009 127.284ZM102.448 126.506L102.844 133.996L102.857 133.995L102.87 133.994L102.448 126.506ZM93.3475 127.923L95.2262 135.184L95.2373 135.181L95.2484 135.178L93.3475 127.923ZM74.1412 151.354L66.6515 151.747L66.6519 151.754L66.6523 151.762L74.1412 151.354ZM100.166 114.153C101.904 92.3944 117.335 74.6689 136.469 73.5757L135.614 58.6001C107.121 60.228 87.3858 85.7696 85.214 112.959L100.166 114.153ZM91.072 106.218C90.9627 106.248 90.7259 106.313 90.4891 106.386L94.8912 120.725C94.8828 120.728 94.8915 120.725 94.9282 120.715C94.9661 120.704 95.0092 120.692 95.08 120.672L91.072 106.218ZM91.2609 106.165C91.2692 106.162 91.2605 106.165 91.2238 106.175C91.1859 106.186 91.1428 106.198 91.0721 106.218L95.0799 120.672C95.1895 120.642 95.4261 120.577 95.6628 120.504L91.2609 106.165ZM102.228 104.467C98.647 104.648 95.0925 105.183 91.6175 106.065L95.3061 120.604C97.8209 119.966 100.394 119.579 102.987 119.447L102.228 104.467ZM120.962 105.282C115.534 104.705 109.549 104.057 102.189 104.469L103.026 119.445C109.039 119.109 113.929 119.619 119.375 120.198L120.962 105.282ZM137.329 106.034C131.309 106.373 126.415 105.863 120.962 105.282L119.375 120.198C124.81 120.777 130.802 121.425 138.173 121.01L137.329 106.034ZM144.95 104.849C142.466 105.5 139.921 105.896 137.355 106.032L138.147 121.011C141.729 120.822 145.283 120.268 148.752 119.36L144.95 104.849ZM158.568 89.0793C158.792 93.1593 157.661 96.3129 155.642 98.7512C153.555 101.272 150.103 103.514 144.969 104.844L148.733 119.364C156.198 117.43 162.669 113.784 167.195 108.318C171.789 102.77 173.962 95.8384 173.546 88.257L158.568 89.0793ZM136.468 73.5757C148.662 72.8808 158.088 80.2579 158.568 89.0758L173.546 88.2604C172.448 68.0976 152.665 57.6283 135.615 58.6L136.468 73.5757ZM140.032 125.869C138.294 147.628 122.864 165.353 103.729 166.446L104.585 181.422C133.077 179.794 152.813 154.253 154.984 127.064L140.032 125.869ZM148.979 133.843C149.115 133.807 149.415 133.726 149.709 133.636L145.307 119.297C145.317 119.294 145.304 119.298 145.255 119.311C145.206 119.325 145.15 119.34 145.062 119.364L148.979 133.843ZM148.781 133.898C148.82 133.887 148.872 133.873 148.979 133.843L145.062 119.364C144.973 119.388 144.832 119.426 144.692 119.466L148.781 133.898ZM137.97 135.55C141.551 135.368 145.106 134.833 148.581 133.951L144.892 119.412C142.377 120.05 139.804 120.438 137.211 120.569L137.97 135.55ZM119.217 134.742C124.652 135.319 130.644 135.966 138.016 135.547L137.166 120.571C131.147 120.913 126.253 120.404 120.8 119.826L119.217 134.742ZM102.87 133.994C108.881 133.655 113.771 134.164 119.217 134.742L120.8 119.826C115.372 119.249 109.387 118.603 102.026 119.018L102.87 133.994ZM95.2484 135.178C97.7323 134.528 100.277 134.131 102.844 133.996L102.052 119.017C98.4694 119.206 94.9158 119.759 91.4467 120.668L95.2484 135.178ZM81.6309 150.961C81.4162 146.868 82.5514 143.708 84.5692 141.269C86.6528 138.751 90.0967 136.511 95.2262 135.184L91.4688 120.662C83.9999 122.595 77.5348 126.24 73.012 131.707C68.4233 137.253 66.2545 144.178 66.6515 151.747L81.6309 150.961ZM103.73 166.446C91.536 167.141 82.1101 159.764 81.6301 150.946L66.6523 151.762C67.7499 171.924 87.5337 182.394 104.584 181.422L103.73 166.446Z" fill="white" mask="url(#path-3-inside-1_3606_42467)"/>
<rect x="96.2227" y="145.938" width="68.8409" height="15.0884" rx="7.5442" transform="rotate(-60 96.2227 145.938)" fill="white" stroke="#09101C" stroke-width="7.5442"/>
</g>
<path d="M1426.26 135.46L1426.13 112.87H1429.35L1467.23 72.6396H1489.39L1446.19 118.44H1443.28L1426.26 135.46ZM1409.24 167.706V51H1427.74V167.706H1409.24ZM1469.27 167.706L1435.23 122.525L1447.98 109.589L1491.99 167.706H1469.27Z" fill="white"/>
<path d="M1343.57 167.706V72.6395H1361.46V87.7412H1362.45C1364.18 82.6248 1367.23 78.6018 1371.61 75.6722C1376.02 72.7014 1381.02 71.2159 1386.59 71.2159C1387.74 71.2159 1389.1 71.2572 1390.67 71.3397C1392.28 71.4222 1393.54 71.5254 1394.45 71.6492V89.3504C1393.7 89.1441 1392.38 88.9171 1390.48 88.6696C1388.59 88.3807 1386.69 88.2363 1384.79 88.2363C1380.42 88.2363 1376.52 89.1647 1373.09 91.0215C1369.71 92.837 1367.03 95.3746 1365.05 98.6342C1363.07 101.853 1362.08 105.525 1362.08 109.651V167.706H1343.57Z" fill="white"/>
<path d="M1284.48 169.625C1275.57 169.625 1267.79 167.582 1261.14 163.497C1254.5 159.413 1249.34 153.698 1245.67 146.353C1242 139.009 1240.16 130.426 1240.16 120.606C1240.16 110.745 1242 102.121 1245.67 94.7351C1249.34 87.3493 1254.5 81.614 1261.14 77.5291C1267.79 73.4442 1275.57 71.4017 1284.48 71.4017C1293.39 71.4017 1301.17 73.4442 1307.81 77.5291C1314.45 81.614 1319.61 87.3493 1323.28 94.7351C1326.96 102.121 1328.79 110.745 1328.79 120.606C1328.79 130.426 1326.96 139.009 1323.28 146.353C1319.61 153.698 1314.45 159.413 1307.81 163.497C1301.17 167.582 1293.39 169.625 1284.48 169.625ZM1284.54 154.09C1290.32 154.09 1295.1 152.563 1298.9 149.51C1302.69 146.456 1305.5 142.392 1307.32 137.317C1309.17 132.242 1310.1 126.651 1310.1 120.544C1310.1 114.479 1309.17 108.908 1307.32 103.833C1305.5 98.7169 1302.69 94.6113 1298.9 91.5167C1295.1 88.4221 1290.32 86.8748 1284.54 86.8748C1278.72 86.8748 1273.89 88.4221 1270.06 91.5167C1266.26 94.6113 1263.43 98.7169 1261.58 103.833C1259.76 108.908 1258.85 114.479 1258.85 120.544C1258.85 126.651 1259.76 132.242 1261.58 137.317C1263.43 142.392 1266.26 146.456 1270.06 149.51C1273.89 152.563 1278.72 154.09 1284.54 154.09Z" fill="white"/>
<path d="M1133.74 167.706L1105.76 72.6399H1124.89L1143.52 142.454H1144.45L1163.14 72.6399H1182.26L1200.83 142.145H1201.76L1220.27 72.6399H1239.39L1211.48 167.706H1192.6L1173.29 99.0679H1171.87L1152.56 167.706H1133.74Z" fill="white"/>
<path d="M1093.87 72.6401V87.4942H1041.94V72.6401H1093.87ZM1055.87 51H1074.37V139.793C1074.37 143.383 1074.91 146.086 1075.98 147.901C1077.05 149.675 1078.44 150.893 1080.13 151.553C1081.86 152.172 1083.74 152.481 1085.76 152.481C1087.25 152.481 1088.55 152.378 1089.66 152.172C1090.77 151.965 1091.64 151.8 1092.26 151.677L1095.6 166.964C1094.53 167.377 1093 167.789 1091.02 168.202C1089.04 168.656 1086.56 168.903 1083.59 168.944C1078.73 169.027 1074.19 168.161 1069.98 166.345C1065.77 164.53 1062.36 161.724 1059.77 157.928C1057.17 154.132 1055.87 149.366 1055.87 143.631V51Z" fill="white"/>
<path opacity="0.9" d="M996.527 168.599C987.293 168.599 979.346 166.607 972.675 162.661C966.044 158.674 960.918 153.08 957.297 145.88C953.718 138.639 951.881 130.089 951.881 120.424C951.881 110.911 953.738 101.912 957.318 94.5898C960.938 87.2673 965.982 81.5517 972.451 77.443C978.959 73.3343 986.555 71.3285 995.146 71.3285C1000.52 71.3285 1005.69 72.1546 1010.65 73.9038C1015.61 75.6531 1020.07 78.399 1024.01 82.1416C1027.96 85.8842 1031.07 90.7455 1033.35 96.7255C1035.63 102.665 1036.72 110.387 1036.72 118.889V125.333H962.314V111.679H1018.93C1018.93 106.878 1017.91 102.136 1015.96 98.4341C1014.01 94.6915 1011.26 91.7422 1007.72 89.5861C1004.22 87.4301 1000.11 86.352 995.394 86.352C990.268 86.352 985.794 87.6131 981.97 90.1353C978.186 92.6168 975.257 95.8712 973.183 99.8986C971.149 103.885 970.112 108.678 970.112 113.356V124.035C970.112 130.299 971.21 135.629 973.407 140.022C975.644 144.415 978.756 147.772 982.743 150.09C986.73 152.368 991.387 153.507 996.716 153.507C1000.17 153.507 1003.33 153.019 1006.17 152.043C1009.02 151.026 1011.48 149.521 1013.56 147.528C1015.63 145.534 1017.23 142.991 1018.33 140.062H1036.72C1035.34 145.147 1031.72 152.796 1028.14 156.62C1024.6 160.403 1020.15 163.352 1014.78 165.468C1009.45 167.542 1003.36 168.599 996.527 168.599Z" fill="white"/>
<path d="M880.941 111.26V167.706H862.435V72.6397H880.198V88.1128H881.374C883.561 83.0789 886.986 79.0352 891.648 75.9819C896.352 72.9285 902.273 71.4019 909.412 71.4019C915.89 71.4019 921.563 72.7635 926.432 75.4867C931.301 78.1687 935.076 82.1711 937.758 87.4939C940.44 92.8166 941.781 99.3978 941.781 107.237V167.706H923.275V109.466C923.275 102.575 921.481 97.1903 917.891 93.3117C914.301 89.3919 909.37 87.432 903.099 87.432C898.807 87.432 894.991 88.3603 891.648 90.2171C888.348 92.0739 885.727 94.7971 883.788 98.3869C881.89 101.935 880.941 106.227 880.941 111.26Z" fill="white"/>
<path d="M837.202 170C833.823 170 830.929 168.811 828.52 166.434C826.142 164.056 824.969 161.178 825.001 157.799C824.969 154.483 826.142 151.652 828.52 149.305C830.929 146.928 833.823 145.739 837.202 145.739C840.393 145.739 843.208 146.928 845.648 149.305C848.12 151.652 849.371 154.483 849.403 157.799C849.371 160.051 848.777 162.101 847.619 163.946C846.493 165.792 845.007 167.263 843.161 168.358C841.347 169.453 839.36 170 837.202 170Z" fill="white"/>
<defs>
<clipPath id="clip0_3606_42467">
<rect width="240.139" height="240" fill="white"/>
</clipPath>
</defs>
</svg>
